<?xml version="1.0" encoding="UTF-8" standalone="no"?>
<!DOCTYPE svg PUBLIC "-//W3C//DTD SVG 20010904//EN"
              "http://www.w3.org/TR/2001/REC-SVG-20010904/DTD/svg10.dtd">

<svg xmlns="http://www.w3.org/2000/svg"
     width="6.61111in" height="6.61111in"
     viewBox="0 0 595 595">
  <path id="Chemin importé"
        fill="none" stroke="black" stroke-width="1"
        d="M 22.19,265.53
           C 34.71,260.97 47.14,255.86 59.12,250.34
             58.25,236.17 57.93,221.91 58.19,207.91
             58.19,207.91 58.26,203.89 58.26,203.89
             58.26,203.89 61.59,206.15 61.59,206.15
             74.30,214.79 91.45,223.08 106.58,230.38
             133.80,243.53 153.47,253.03 150.09,263.09
             150.09,263.10 150.09,263.10 150.09,263.10
             150.09,263.10 150.09,263.11 150.09,263.11
             150.09,263.11 141.16,288.90 141.16,288.90
             166.25,300.84 253.16,319.03 297.36,316.24
             297.45,316.23 297.54,316.23 297.63,316.24
             341.84,319.03 428.74,300.85 453.83,288.90
             453.83,288.90 444.90,263.11 444.90,263.11
             444.90,263.11 444.90,263.11 444.90,263.11
             444.90,263.11 444.90,263.10 444.90,263.10
             441.52,253.04 461.19,243.55 488.42,230.39
             503.55,223.09 520.70,214.80 533.41,206.16
             533.41,206.16 536.74,203.90 536.74,203.90
             536.74,203.90 536.81,207.92 536.81,207.92
             537.07,221.91 536.75,236.18 535.88,250.35
             547.87,255.87 560.29,260.98 572.81,265.54
             572.81,265.54 576.97,267.04 576.97,267.04
             576.97,267.04 573.23,269.41 573.23,269.41
             559.85,277.89 541.65,287.72 519.14,298.67
             519.14,298.67 530.12,322.15 530.12,322.15
             530.72,323.22 531.09,324.97 529.69,327.39
             519.66,344.72 414.75,393.32 297.46,391.01
             180.27,393.32 75.37,344.73 65.34,327.40
             63.94,324.98 64.31,323.23 64.91,322.16
             64.91,322.16 75.89,298.68 75.89,298.68
             53.37,287.73 35.17,277.90 21.78,269.42
             21.78,269.42 18.04,267.05 18.04,267.05
             18.04,267.05 22.19,265.53 22.19,265.53 Z
           M 449.05,261.70
           C 451.17,267.71 463.74,263.39 474.84,259.57
             486.83,255.44 497.19,251.89 500.30,258.42
             500.30,258.43 500.31,258.44 500.32,258.45
             500.32,258.45 500.33,258.46 500.33,258.47
             500.33,258.48 500.33,258.48 500.33,258.48
             500.33,258.48 500.33,258.48 500.33,258.48
             500.35,258.52 500.36,258.55 500.38,258.59
             500.38,258.59 517.30,294.73 517.30,294.73
             537.59,284.87 554.33,275.92 567.15,268.08
             555.47,263.71 543.90,258.88 532.71,253.68
             532.71,253.68 531.36,253.05 531.36,253.05
             531.36,253.05 531.45,251.56 531.45,251.56
             532.30,238.35 532.66,225.04 532.52,211.96
             520.02,219.97 504.31,227.55 490.32,234.31
             469.97,244.15 446.90,255.28 449.05,261.70 Z
           M 451.45,268.70
           C 451.45,268.70 457.81,287.10 457.81,287.10
             490.03,273.51 495.44,264.97 496.33,262.64
             496.78,261.44 496.57,260.75 496.44,260.45
             496.44,260.45 496.38,260.33 496.38,260.33
             494.95,257.25 484.12,260.97 476.23,263.69
             467.42,266.71 457.83,270.00 451.45,268.70
             451.45,268.70 451.45,268.71 451.45,268.70 Z
           M 137.60,291.98
           C 121.38,285.28 101.66,275.62 95.81,266.44
             95.81,266.44 92.85,272.78 92.85,272.78
             92.98,272.89 93.12,273.01 93.24,273.14
             93.32,273.23 93.40,273.32 93.47,273.42
             93.49,273.45 93.51,273.48 93.53,273.51
             95.01,275.57 96.59,277.61 98.42,279.53
             100.22,281.45 102.16,283.33 104.23,285.09
             106.29,286.86 108.46,288.55 110.72,290.15
             112.98,291.75 115.35,293.28 117.74,294.63
             117.75,294.64 117.76,294.64 117.77,294.65
             118.25,294.92 118.43,295.45 118.18,295.84
             117.95,296.20 117.43,296.31 116.98,296.12
             114.30,294.96 111.74,293.67 109.20,292.26
             106.67,290.85 104.21,289.33 101.82,287.69
             99.42,286.07 97.13,284.30 94.93,282.41
             93.33,281.05 91.83,279.58 90.38,278.06
             90.38,278.06 87.95,283.25 87.95,283.25
             88.10,283.37 88.25,283.50 88.39,283.65
             88.48,283.74 88.56,283.83 88.63,283.93
             88.65,283.96 88.68,283.99 88.70,284.02
             90.23,286.09 91.87,288.15 93.75,290.09
             95.60,292.05 97.58,293.94 99.71,295.73
             101.83,297.53 104.05,299.25 106.37,300.87
             108.68,302.49 111.11,304.04 113.57,305.42
             113.58,305.43 113.59,305.43 113.60,305.44
             114.08,305.71 114.27,306.24 114.02,306.63
             113.79,306.99 113.26,307.10 112.80,306.90
             110.04,305.72 107.42,304.40 104.82,302.97
             102.23,301.53 99.71,299.98 97.26,298.32
             94.81,296.66 92.46,294.86 90.19,292.95
             88.52,291.56 86.98,290.05 85.47,288.50
             85.47,288.50 83.04,293.70 83.04,293.70
             83.22,293.83 83.39,293.98 83.54,294.14
             83.62,294.23 83.71,294.32 83.78,294.42
             83.80,294.45 83.83,294.48 83.85,294.51
             85.43,296.61 87.12,298.69 89.05,300.66
             90.96,302.64 93.00,304.56 95.19,306.37
             97.35,308.18 99.63,309.92 102.01,311.57
             104.38,313.21 106.87,314.79 109.39,316.19
             109.40,316.20 109.41,316.20 109.42,316.21
             109.91,316.49 110.11,317.02 109.86,317.41
             109.63,317.77 109.09,317.87 108.62,317.67
             105.79,316.46 103.11,315.12 100.45,313.66
             97.80,312.21 95.22,310.63 92.71,308.94
             90.19,307.27 87.77,305.44 85.45,303.50
             83.73,302.08 82.13,300.54 80.57,298.96
             80.57,298.96 78.13,304.17 78.13,304.17
             78.32,304.31 78.51,304.46 78.68,304.64
             78.77,304.74 78.85,304.83 78.93,304.93
             78.95,304.96 78.98,304.99 79.00,305.02
             80.63,307.14 82.37,309.24 84.35,311.23
             86.31,313.23 88.41,315.18 90.65,317.01
             92.88,318.85 95.23,320.62 97.65,322.29
             100.08,323.96 102.63,325.56 105.21,326.98
             105.22,326.99 105.23,326.99 105.24,327.00
             105.75,327.28 105.96,327.82 105.70,328.21
             105.46,328.57 104.91,328.67 104.43,328.46
             101.55,327.23 98.80,325.86 96.08,324.38
             93.38,322.90 90.73,321.29 88.16,319.58
             85.58,317.88 83.10,316.02 80.72,314.06
             78.94,312.61 77.29,311.04 75.67,309.42
             75.67,309.42 73.24,314.64 73.24,314.64
             73.46,314.79 73.66,314.95 73.85,315.14
             73.95,315.23 74.03,315.33 74.11,315.43
             74.13,315.46 74.16,315.49 74.18,315.52
             75.84,317.66 77.63,319.80 79.67,321.81
             81.68,323.83 83.83,325.80 86.13,327.66
             88.42,329.51 90.82,331.31 93.31,333.00
             95.79,334.69 98.39,336.31 101.03,337.76
             101.04,337.77 101.05,337.77 101.06,337.78
             101.58,338.06 101.80,338.60 101.54,338.99
             101.30,339.34 100.74,339.44 100.25,339.23
             97.30,337.98 94.50,336.59 91.72,335.08
             88.95,333.57 86.24,331.94 83.61,330.20
             80.97,328.48 78.43,326.60 75.99,324.61
             74.17,323.13 72.46,321.53 70.79,319.88
             70.79,319.88 68.80,324.12 68.80,324.12
             68.78,324.17 68.75,324.23 68.72,324.28
             68.72,324.42 68.82,325.22 70.36,326.93
             78.11,335.53 107.22,351.05 147.84,364.04
             182.23,375.04 236.13,387.88 297.44,386.70
             300.13,386.75 302.82,386.78 305.49,386.78
             363.54,386.78 414.24,374.55 447.13,364.04
             487.75,351.04 516.87,335.53 524.62,326.92
             526.32,325.04 526.27,324.26 526.27,324.25
             526.23,324.19 526.22,324.18 526.19,324.11
             526.19,324.11 524.14,319.74 524.14,319.74
             522.38,321.50 520.58,323.20 518.63,324.77
             516.19,326.76 513.65,328.64 511.01,330.36
             508.37,332.10 505.66,333.72 502.89,335.23
             500.11,336.74 497.31,338.12 494.36,339.38
             493.81,339.61 493.21,339.46 493.02,339.04
             492.85,338.65 493.08,338.18 493.55,337.92
             493.57,337.91 493.58,337.91 493.59,337.90
             496.23,336.46 498.84,334.83 501.32,333.15
             503.82,331.45 506.21,329.66 508.50,327.81
             510.80,325.96 512.95,323.99 514.97,321.97
             517.00,319.96 518.79,317.83 520.47,315.69
             520.49,315.66 520.51,315.64 520.53,315.61
             520.85,315.19 521.28,314.85 521.74,314.59
             521.74,314.59 519.27,309.28 519.27,309.28
             517.56,311.00 515.81,312.68 513.92,314.21
             511.54,316.17 509.06,318.03 506.48,319.73
             503.91,321.44 501.26,323.04 498.56,324.52
             495.83,326.00 493.09,327.36 490.20,328.59
             489.66,328.82 489.07,328.67 488.88,328.25
             488.71,327.87 488.93,327.39 489.39,327.14
             489.40,327.13 489.41,327.13 489.42,327.12
             492.00,325.70 494.55,324.10 496.98,322.44
             499.41,320.77 501.75,319.00 503.98,317.16
             506.22,315.33 508.31,313.39 510.28,311.39
             512.27,309.40 514.01,307.30 515.64,305.18
             515.66,305.15 515.68,305.13 515.70,305.10
             516.01,304.70 516.41,304.37 516.85,304.12
             516.85,304.12 514.37,298.83 514.37,298.83
             512.72,300.52 511.03,302.16 509.20,303.66
             506.88,305.60 504.46,307.42 501.94,309.09
             499.43,310.78 496.85,312.35 494.20,313.81
             491.54,315.26 488.85,316.60 486.03,317.81
             485.51,318.04 484.93,317.88 484.74,317.46
             484.56,317.07 484.78,316.60 485.23,316.35
             485.24,316.34 485.25,316.34 485.26,316.33
             487.78,314.93 490.27,313.36 492.64,311.72
             495.02,310.07 497.30,308.33 499.47,306.52
             501.66,304.71 503.70,302.79 505.61,300.82
             507.55,298.85 509.24,296.77 510.82,294.67
             510.84,294.64 510.86,294.62 510.88,294.59
             511.17,294.20 511.54,293.89 511.95,293.64
             511.95,293.64 509.48,288.36 509.48,288.36
             507.89,290.01 506.25,291.62 504.48,293.09
             502.22,295.00 499.86,296.80 497.41,298.45
             494.96,300.11 492.44,301.66 489.85,303.09
             487.25,304.52 484.63,305.84 481.87,307.02
             481.36,307.24 480.79,307.08 480.60,306.66
             480.42,306.27 480.63,305.80 481.07,305.56
             481.08,305.55 481.09,305.55 481.10,305.54
             483.56,304.16 485.98,302.61 488.30,301.00
             490.62,299.38 492.85,297.66 494.97,295.87
             497.10,294.09 499.09,292.19 500.94,290.24
             502.82,288.30 504.47,286.24 506.00,284.17
             506.02,284.14 506.04,284.12 506.06,284.09
             506.33,283.72 506.68,283.42 507.06,283.18
             507.06,283.18 504.60,277.91 504.60,277.91
             503.06,279.53 501.48,281.10 499.77,282.54
             497.58,284.42 495.28,286.20 492.88,287.81
             490.49,289.44 488.03,290.96 485.50,292.37
             482.96,293.77 480.40,295.06 477.71,296.22
             477.21,296.44 476.65,296.27 476.46,295.85
             476.29,295.47 476.49,295.00 476.92,294.76
             476.93,294.75 476.94,294.75 476.95,294.74
             479.34,293.39 481.71,291.86 483.97,290.27
             486.24,288.67 488.41,286.98 490.47,285.22
             492.55,283.46 494.48,281.59 496.29,279.66
             498.12,277.74 499.70,275.70 501.19,273.65
             501.20,273.62 501.22,273.60 501.24,273.57
             501.49,273.22 501.81,272.93 502.17,272.70
             502.17,272.70 499.24,266.43 499.24,266.43
             493.38,275.61 473.66,285.27 457.43,291.98
             433.72,304.39 344.24,323.52 297.50,320.61
             250.76,323.50 161.28,304.39 137.60,291.98 Z
           M 143.56,268.73
           C 143.56,268.72 143.56,268.72 143.56,268.71
             137.18,270.02 127.59,266.73 118.79,263.71
             110.90,260.99 100.08,257.26 98.65,260.34
             98.65,260.34 98.64,260.37 98.64,260.37
             98.64,260.37 98.59,260.47 98.59,260.47
             98.45,260.77 98.24,261.46 98.70,262.66
             99.59,264.99 105.00,273.52 137.20,287.11
             137.20,287.11 143.56,268.73 143.56,268.73 Z
           M 27.87,268.07
           C 40.69,275.91 57.44,284.86 77.74,294.73
             77.74,294.73 94.66,258.59 94.66,258.59
             94.68,258.54 94.71,258.50 94.73,258.45
             94.75,258.41 94.78,258.38 94.80,258.34
             97.96,251.92 108.28,255.46 120.21,259.57
             127.33,262.02 135.07,264.68 140.24,264.68
             143.13,264.68 145.23,263.85 145.99,261.69
             148.14,255.29 125.06,244.15 104.70,234.31
             90.72,227.55 75.01,219.97 62.50,211.96
             62.36,225.05 62.72,238.36 63.57,251.56
             63.57,251.56 63.66,253.05 63.66,253.05
             63.66,253.05 62.31,253.68 62.31,253.68
             51.13,258.87 39.56,263.71 27.87,268.07 Z" />
</svg>
