<?xml version="1.0" encoding="UTF-8" standalone="no"?>
<!DOCTYPE svg PUBLIC "-//W3C//DTD SVG 20010904//EN"
              "http://www.w3.org/TR/2001/REC-SVG-20010904/DTD/svg10.dtd">

<svg xmlns="http://www.w3.org/2000/svg"
     width="5.1938in" height="1.43038in"
     viewBox="0 0 374 103">
  <path id="Sélection"
        fill="none" stroke="black" stroke-width="1"
        d="M 67.23,14.00
           C 68.90,3.08 82.86,0.01 92.00,0.00
             92.00,0.00 100.00,0.00 100.00,0.00
             113.78,0.16 134.86,8.48 136.82,24.00
             139.14,42.46 126.46,46.54 120.00,61.00
             138.65,57.66 152.57,60.19 171.00,62.16
             171.00,62.16 188.00,63.82 188.00,63.82
             188.00,63.82 205.00,62.15 205.00,62.15
             222.99,60.00 237.91,57.76 256.00,61.00
             249.77,47.06 237.41,42.40 239.10,25.00
             240.53,10.32 258.03,1.98 271.00,0.15
             271.00,0.15 286.00,0.15 286.00,0.15
             294.69,0.11 307.34,3.88 308.76,14.00
             309.52,19.42 304.68,26.20 302.27,31.27
             302.27,31.27 307.73,34.09 307.73,34.09
             318.08,36.32 309.93,24.34 313.60,19.10
             317.09,14.11 324.38,13.07 330.00,13.00
             338.57,12.90 343.60,12.92 352.00,15.44
             366.99,19.93 380.62,36.51 371.01,52.00
             366.13,59.87 360.51,60.60 354.00,65.68
             343.79,73.65 346.61,79.81 339.00,78.64
             333.72,77.84 328.21,72.64 328.76,67.00
             329.18,62.63 333.57,60.73 335.74,55.00
             338.10,48.78 336.56,47.64 341.00,41.00
             331.98,37.42 318.12,35.12 312.07,45.02
             308.03,51.63 309.49,58.09 305.71,60.55
             300.83,63.72 291.59,60.62 289.79,54.98
             288.36,50.49 292.63,47.39 293.67,41.00
             294.62,35.16 292.07,34.64 293.00,28.00
             289.71,27.34 286.35,26.27 283.00,26.10
             271.23,25.53 261.15,31.50 256.00,42.00
             264.62,43.97 276.15,49.23 274.77,60.00
             273.93,66.61 268.26,69.24 266.12,76.00
             264.09,82.40 268.52,84.07 267.52,89.00
             265.64,98.22 251.34,99.08 244.00,99.00
             234.01,98.88 227.47,95.01 220.00,95.51
             208.85,96.27 196.13,100.67 185.00,99.91
             185.00,99.91 154.00,95.46 154.00,95.46
             147.89,95.67 142.59,98.88 133.00,99.00
             125.48,99.08 110.43,98.58 108.48,89.00
             107.48,84.07 111.91,82.40 109.88,76.00
             107.97,69.98 103.29,67.28 101.65,62.00
             98.02,50.32 110.80,44.16 120.00,42.00
             115.37,31.84 106.90,27.13 96.00,26.17
             92.16,25.83 85.72,26.29 83.94,30.33
             82.20,34.27 81.72,39.92 83.11,44.00
             84.58,48.33 87.40,51.23 86.21,54.98
             84.72,59.66 78.59,62.25 74.00,61.63
             64.92,60.42 69.47,52.64 63.30,44.04
             56.96,35.20 43.59,37.59 35.00,41.00
             39.33,47.48 37.94,48.76 40.40,55.00
             42.59,60.59 45.77,61.88 46.67,66.00
             48.24,73.17 40.71,80.17 34.21,78.67
             30.10,77.72 30.60,72.81 22.99,66.47
             15.76,60.45 9.84,60.36 4.53,51.00
             -4.39,35.26 10.21,19.23 25.00,15.16
             33.73,12.76 38.15,12.90 47.00,13.00
             52.50,13.07 59.05,14.13 62.40,19.05
             66.05,24.42 59.67,35.60 70.00,33.37
             70.00,33.37 74.00,32.00 74.00,32.00
             71.48,26.69 66.35,19.71 67.23,14.00 Z
           M 77.87,20.56
           C 80.07,22.18 81.08,24.53 83.26,25.12
             83.26,25.12 93.00,25.12 93.00,25.12
             99.64,24.97 103.98,25.16 110.00,28.53
             120.52,34.42 120.11,43.13 128.36,40.91
             135.21,39.07 139.07,25.50 131.61,16.00
             126.66,9.70 120.36,6.80 113.00,4.20
             101.94,0.63 95.17,-0.95 84.00,4.20
             76.96,7.24 71.47,9.10 69.73,17.27
             72.66,17.70 75.40,18.72 77.87,20.56 Z
           M 286.99,2.56
           C 282.53,1.44 281.95,0.83 277.00,1.04
             266.85,1.47 249.52,8.51 243.65,17.00
             236.08,27.94 243.64,40.77 249.95,40.72
             253.72,40.70 255.29,36.79 257.60,34.46
             259.12,32.92 263.09,30.26 265.00,29.11
             273.56,23.98 283.49,24.30 293.00,26.00
             296.87,17.63 298.47,20.14 306.00,17.00
             302.98,8.16 295.41,4.69 286.99,2.56 Z
           M 58.30,29.00
           C 58.98,25.43 62.32,21.86 59.40,18.70
             55.74,14.75 44.10,14.94 39.00,15.00
             25.14,15.17 9.87,22.10 5.11,36.00
             3.10,41.84 3.91,47.09 7.71,51.98
             9.09,53.77 11.29,56.41 13.87,55.66
             16.41,54.93 18.82,49.29 20.00,47.00
             15.75,38.38 25.34,32.87 32.00,39.00
             42.45,35.74 49.34,34.54 60.00,38.00
             58.84,34.81 57.62,32.55 58.30,29.00 Z
           M 371.81,41.00
           C 370.21,20.40 347.97,14.80 331.00,15.00
             326.74,15.05 319.29,15.74 316.42,19.28
             313.68,22.66 316.91,25.49 317.30,29.00
             317.54,31.20 316.44,35.64 316.00,38.00
             326.66,34.54 333.55,35.74 344.00,39.00
             351.03,33.03 360.11,37.95 356.00,48.00
             356.00,48.00 362.00,58.00 362.00,58.00
             366.54,52.39 372.49,49.66 371.81,41.00 Z
           M 75.00,30.00
           C 81.66,23.25 75.43,22.79 70.18,19.45
             70.18,19.45 75.00,30.00 75.00,30.00 Z
           M 300.36,29.36
           C 300.36,29.36 307.00,18.00 307.00,18.00
             301.27,20.74 293.49,22.40 300.36,29.36 Z
           M 61.00,34.00
           C 61.00,34.00 61.00,27.00 61.00,27.00
             61.00,27.00 61.00,34.00 61.00,34.00 Z
           M 62.00,36.00
           C 63.66,41.67 65.55,41.59 67.49,46.00
             68.80,48.95 69.56,55.28 71.72,57.40
             74.85,60.46 82.01,58.45 83.86,54.79
             85.12,52.31 83.01,50.67 81.76,46.00
             80.03,39.53 82.01,34.09 80.00,27.00
             73.52,34.33 72.03,35.91 62.00,36.00 Z
           M 294.96,44.00
           C 294.21,46.53 291.45,51.76 291.87,53.91
             292.76,58.47 301.07,60.14 303.43,58.66
             305.10,57.60 305.46,53.01 306.04,51.00
             309.29,39.76 312.19,43.07 315.00,35.00
             306.63,37.01 301.46,34.26 297.00,27.00
             294.97,32.11 296.79,37.82 294.96,44.00 Z
           M 315.55,32.82
           C 315.55,32.82 315.27,26.82 315.27,26.82
             315.27,26.82 315.55,32.82 315.55,32.82 Z
           M 31.78,40.43
           C 27.05,36.26 21.13,37.26 20.00,44.00
             20.00,44.00 22.00,46.00 22.00,46.00
             22.00,46.00 27.91,41.82 27.91,41.82
             27.91,41.82 35.00,51.00 35.00,51.00
             35.58,46.93 35.06,43.33 31.78,40.43 Z
           M 352.85,38.60
           C 346.30,35.88 337.84,44.28 342.00,51.00
             342.00,51.00 350.00,42.00 350.00,42.00
             354.04,47.86 358.12,40.79 352.85,38.60 Z
           M 107.11,50.39
           C 104.57,52.63 102.15,56.33 104.19,59.70
             106.17,62.96 112.66,63.53 115.73,61.69
             118.38,60.09 118.98,56.63 120.53,54.04
             123.50,49.07 126.41,48.58 129.00,42.18
             122.54,42.76 111.99,46.08 107.11,50.39 Z
           M 255.52,54.00
           C 256.64,55.91 258.03,59.84 259.56,61.01
             263.45,64.02 273.86,61.68 272.13,55.00
             270.25,47.71 253.76,42.46 247.00,42.00
             247.00,42.00 255.52,54.00 255.52,54.00 Z
           M 24.00,47.00
           C 24.00,47.00 28.00,54.00 28.00,54.00
             28.00,54.00 33.27,52.55 33.27,52.55
             33.27,52.55 28.00,44.00 28.00,44.00
             28.00,44.00 24.00,47.00 24.00,47.00 Z
           M 344.09,52.36
           C 344.09,52.36 349.00,54.00 349.00,54.00
             349.00,54.00 353.00,47.00 353.00,47.00
             353.00,47.00 350.00,45.09 350.00,45.09
             346.02,48.30 345.78,47.66 344.09,52.36 Z
           M 17.00,56.00
           C 17.00,56.00 26.00,56.00 26.00,56.00
             26.00,56.00 22.00,50.00 22.00,50.00
             22.00,50.00 17.00,56.00 17.00,56.00 Z
           M 349.91,55.27
           C 349.91,55.27 357.00,57.00 357.00,57.00
             358.84,57.58 355.43,49.07 354.64,48.82
             351.06,50.65 353.20,52.83 349.91,55.27 Z
           M 26.09,57.49
           C 23.30,56.85 14.09,58.47 15.73,59.36
             20.25,61.32 23.81,63.32 27.18,67.13
             29.12,69.31 32.29,75.20 34.53,76.07
             38.40,77.57 44.59,72.10 44.52,68.16
             44.52,68.16 36.36,52.91 36.36,52.91
             36.41,52.51 28.62,56.31 26.09,57.49 Z
           M 350.00,57.21
           C 350.00,57.21 338.00,53.00 338.00,53.00
             336.87,63.00 329.91,64.82 331.78,69.93
             332.70,72.43 336.71,74.54 339.00,77.00
             344.10,75.38 346.49,69.80 350.29,66.19
             350.29,66.19 360.00,59.00 360.00,59.00
             360.00,59.00 350.00,57.21 350.00,57.21 Z
           M 246.00,62.02
           C 246.00,62.02 226.00,62.02 226.00,62.02
             226.00,62.02 194.00,65.00 194.00,65.00
             194.00,65.00 183.00,65.00 183.00,65.00
             183.00,65.00 156.00,62.72 156.00,62.72
             156.00,62.72 140.00,61.00 140.00,61.00
             140.00,61.00 117.00,63.39 117.00,63.39
             117.00,63.39 105.00,65.00 105.00,65.00
             109.01,68.17 113.48,74.61 113.40,80.00
             113.35,83.52 110.45,86.37 111.64,89.91
             114.04,97.04 126.97,97.07 133.00,97.00
             133.00,97.00 153.00,94.01 153.00,94.01
             153.00,94.01 191.00,97.91 191.00,97.91
             191.00,97.91 222.00,93.02 222.00,93.02
             234.87,93.31 249.65,101.89 261.89,93.02
             268.26,88.42 262.94,84.83 263.15,79.00
             263.35,73.13 266.95,67.91 271.00,64.00
             271.00,64.00 246.00,62.02 246.00,62.02 Z" />
</svg>
