<?xml version="1.0" encoding="UTF-8" standalone="no"?>
<!DOCTYPE svg PUBLIC "-//W3C//DTD SVG 20010904//EN"
              "http://www.w3.org/TR/2001/REC-SVG-20010904/DTD/svg10.dtd">

<svg xmlns="http://www.w3.org/2000/svg"
     width="6.03333in" height="6.03333in"
     viewBox="0 0 543 543">
  <path id="Chemin importé"
        fill="none" stroke="black" stroke-width="1"
        d="M 126.75,278.52
           C 128.53,271.53 142.01,274.12 142.23,285.15
             142.44,295.76 135.05,302.23 127.01,302.07
             120.45,301.94 111.11,297.21 111.15,284.94
             111.17,276.51 114.43,264.10 131.20,261.34
             152.98,257.75 172.80,243.98 180.61,229.52
             186.34,218.74 178.00,210.02 168.98,215.22
             159.97,220.42 150.80,224.27 141.65,226.88
             123.35,232.13 105.17,232.48 88.53,228.98
             55.26,222.01 28.20,199.64 18.96,170.26
             18.96,170.26 8.16,170.26 8.16,170.26
             8.16,170.26 8.16,542.23 8.16,542.23
             39.36,484.43 89.46,393.47 94.38,385.88
             104.47,370.33 91.69,363.03 84.42,372.32
             81.48,376.08 71.01,393.31 61.14,393.76
             50.60,394.24 44.02,388.73 45.05,374.56
             46.26,357.88 61.00,344.83 85.45,349.02
             99.07,351.35 106.13,345.47 110.39,337.67
             115.36,328.56 107.68,319.07 97.63,317.44
             87.67,315.82 81.99,326.57 84.49,332.05M 277.97,126.10
           C 270.96,127.88 273.56,141.35 284.60,141.57
             295.22,141.78 301.70,134.39 301.54,126.36
             301.41,119.81 296.67,110.47 284.39,110.51
             275.96,110.53 263.53,113.79 260.76,130.54
             257.18,152.30 243.39,172.12 228.93,179.91
             218.13,185.64 209.41,177.30 214.61,168.29
             219.82,159.28 223.66,150.13 226.29,140.99
             231.53,122.71 231.88,104.54 228.39,87.91
             221.40,54.67 199.02,27.63 169.62,18.39
             169.62,18.39 169.62,7.60 169.62,7.60
             169.62,7.60 541.88,7.60 541.88,7.60
             484.04,38.78 393.00,88.84 385.41,93.76
             369.84,103.84 362.53,91.07 371.83,83.80
             375.61,80.86 392.85,70.41 393.30,60.54
             393.77,50.01 388.25,43.43 374.07,44.47
             357.39,45.68 344.32,60.40 348.51,84.84
             350.85,98.43 344.97,105.50 337.15,109.75
             328.05,114.72 318.55,107.04 316.91,97.01
             315.28,87.06 326.06,81.37 331.54,83.87M 9.29,8.75
           C 9.29,8.75 9.04,116.96 9.04,116.96
             13.59,50.05 48.40,12.82 117.76,8.50
             117.76,8.50 9.29,8.74 9.29,8.74
             9.29,8.74 9.29,8.75 9.29,8.75 Z
           M 542.37,1.14
           C 542.37,1.14 1.00,1.14 1.00,1.14M 0.62,542.38
           C 0.62,542.38 1.64,0.62 1.64,0.62" />
</svg>
